Coordinates
version=1
nRows=19
nColumns=34
inDegrees=yes

Units are S.I. units (second, meters, Newtons, ...)
If the header above contains a line with 'inDegrees', this indicates whether rotational values are in degrees (yes) or radians (no).

endheader
time	pelvis_tilt	pelvis_list	pelvis_rotation	pelvis_tx	pelvis_ty	pelvis_tz	hip_flexion_r	hip_adduction_r	hip_rotation_r	knee_angle_r	ankle_angle_r	subtalar_angle_r	mtp_angle_r	hip_flexion_l	hip_adduction_l	hip_rotation_l	knee_angle_l	ankle_angle_l	subtalar_angle_l	mtp_angle_l	lumbar_extension	lumbar_bending	lumbar_rotation	arm_flex_r	arm_add_r	arm_rot_r	elbow_flex_r	pro_sup_r	arm_flex_l	arm_add_l	arm_rot_l	elbow_flex_l	pro_sup_l
      2.05000000	     -9.60386555	     -7.35805285	      9.03451769	      1.84621027	      0.87679868	     -0.14372461	     32.40362481	     -5.95130123	    -16.19384507	     41.02497610	      1.31977548	     -0.77438520	      0.00000000	     -6.73297495	    -10.99192087	     -3.99566287	      3.72569879	      1.96246787	      7.19787310	      0.00000000	     -2.61837591	      1.27930773	     -6.02803767	     12.44293346	    -40.37251856	    -12.83309619	    128.56684856	     91.48040559	     23.09315858	    -10.46943924	     34.95014028	     97.31941528	     97.58140741
      2.06666670	     -9.45579830	     -6.96501453	      9.29467381	      1.85685128	      0.87365840	     -0.14052447	     32.85646952	     -5.97773607	    -16.20880581	     35.53113782	      2.58012086	      0.13757005	      0.00000000	     -7.93502601	    -10.94316736	     -3.31195365	      3.51636547	      3.57961352	      5.94899113	      0.00000000	     -3.66507446	      0.87128414	     -7.13461634	      6.18060576	    -35.93335717	    -12.69548243	    124.46493793	     91.18143254	     19.65823408	    -10.50441825	     33.51446503	     93.01310378	     96.55350437
      2.08333330	     -9.38442886	     -6.40856451	      9.75702251	      1.86920036	      0.86728412	     -0.13752673	     33.22792088	     -6.31626169	    -16.13910912	     30.06578619	      3.42956274	      0.64937356	      0.00000000	     -9.22630854	    -10.75092953	     -2.48271695	      3.36882016	      4.41732441	      4.88178129	      0.00000000	     -4.59241358	      0.18700309	     -8.26970884	     -0.07659622	    -31.93558269	    -12.80438235	    119.75310966	     90.65352397	     17.25962243	    -10.84983138	     33.20311079	     87.77977724	     94.73208048
      2.10000000	     -9.21726074	     -6.03254139	     10.13183313	      1.88299109	      0.85918221	     -0.13395084	     33.37402496	     -6.38518740	    -15.84004400	     24.71547667	      4.04629242	      0.92844366	      0.00000000	    -10.66923499	    -10.76216261	     -1.77545708	      3.56351274	      4.68678479	      4.06350634	      0.00000000	     -5.63139079	     -0.25625557	     -8.30429849	     -7.07098505	    -27.74458969	    -15.02621500	    115.51479314	     89.24362278	     16.21713514	    -11.17844090	     35.40637189	     82.12820001	     89.42718562
      2.11666670	     -9.08640662	     -5.74849392	     10.33719067	      1.89763797	      0.85252909	     -0.12971067	     33.46992906	     -6.35311471	    -15.37750705	     19.82919903	      4.57378759	      0.92515052	      0.00000000	    -12.23640893	    -10.83472338	     -1.59615653	      3.68902777	      4.32736999	      4.00672340	      0.00000000	     -6.43115973	     -0.36999522	     -9.62481359	    -11.21162863	    -24.32279316	    -14.66780422	    109.97715109	     89.21687884	     13.30429380	    -11.63342472	     34.22717160	     77.64414756	     88.89725392
      2.13333330	     -9.05570898	     -5.67570106	     10.51596001	      1.91216798	      0.84924601	     -0.12584487	     33.40704034	     -6.13985687	    -14.86285966	     15.30689943	      4.98230587	      0.46029872	      0.00000000	    -13.48536918	    -11.14068498	     -1.46466963	      3.97825545	      3.65388006	      3.93624406	      0.00000000	     -6.82902310	     -0.17998227	    -10.61582835	    -14.45436959	    -21.65176770	    -13.84598915	    103.60476279	     89.31687419	     10.78358481	    -11.73878517	     33.40038157	     72.24867006	     88.42163957
      2.15000000	     -8.99961389	     -5.67039958	     10.55329974	      1.92676191	      0.84550760	     -0.12343654	     33.20359896	     -5.87149884	    -14.27844076	     11.60403789	      5.14274366	     -0.32221108	      0.00000000	    -14.62270774	    -11.49733954	     -1.56678781	      4.22208324	      3.12066347	      4.01452884	      0.00000000	     -7.12122683	      0.19221800	    -11.30571844	    -16.93064370	    -19.60626600	    -12.99534889	     96.78485773	     89.50863650	      8.56172021	    -11.65023056	     32.67734492	     66.79634272	     88.04036364
      2.16666670	     -9.06426981	     -5.67370816	     10.43490093	      1.94171900	      0.83970095	     -0.12197977	     33.18096623	     -5.64118817	    -13.68588197	      9.30576204	      5.13622690	     -1.56621307	      0.00000000	    -15.52968361	    -11.77842614	     -1.77826128	      4.43630359	      2.85559848	      4.19011259	      0.00000000	     -7.11328115	      0.66048624	    -11.77479228	    -19.06575537	    -18.25405739	    -11.99153538	     90.05772397	     89.82929443	      6.53611504	    -11.36668579	     32.08269145	     61.56881437	     87.71070861
      2.18333330	     -9.09007159	     -5.68369683	     10.09475788	      1.95620379	      0.83467881	     -0.11928401	     33.21102379	     -5.25658229	    -13.13925582	      8.43937937	      4.69346053	     -2.90428000	      0.00000000	    -16.38127672	    -12.03906006	     -2.09872334	      4.77570096	      2.65319902	      4.27785181	      0.00000000	     -7.16644071	      1.17146256	    -11.67656783	    -20.88597556	    -16.99119412	    -11.25907874	     83.84503495	     90.10613229	      4.63912368	    -11.25042070	     31.67134471	     57.59564034	     87.50174343
      2.20000000	     -9.28782647	     -5.75786780	      9.76180262	      1.97121459	      0.83009711	     -0.11479772	     33.51868794	     -4.78164362	    -12.55023343	      9.05650553	      3.97935705	     -4.56519222	      0.00000000	    -16.89943659	    -12.41413509	     -2.51730408	      5.23072451	      2.20640659	      4.34982098	      0.00000000	     -7.03326818	      1.80377207	    -11.36756223	    -22.56257607	    -16.18651089	    -10.52648342	     78.31082748	     90.36502993	      2.90206207	    -11.35999627	     31.36149531	     54.45056578	     87.34073225
      2.21666670	     -9.58820610	     -5.79818634	      9.52705726	      1.98840722	      0.82578048	     -0.10778002	     34.01850070	     -4.28884889	    -11.85644285	     10.87072124	      2.98547850	     -6.77584867	      0.00000000	    -17.05259298	    -12.94264175	     -2.81538372	      6.06112883	      1.36293938	      4.56395565	      0.00000000	     -6.72271899	      2.40571082	    -11.23368444	    -23.53658859	    -15.27248260	     -9.41455963	     73.05808015	     90.67778024	      1.08526920	    -11.74319953	     31.06285693	     51.82293744	     87.14444291
      2.23333330	     -9.83336410	     -5.91921706	      9.30872780	      2.00891044	      0.82238757	     -0.09876564	     34.37309793	     -3.56709431	    -11.19425157	     13.21683268	      1.65050999	     -8.91207162	      0.00000000	    -17.05621766	    -13.78570525	     -3.25033994	      7.29828579	     -0.11942812	      4.67157585	      0.00000000	     -6.43469439	      3.01522845	    -11.08035236	    -24.22830798	    -14.13310451	     -8.02163682	     67.34524987	     90.93010007	     -0.98235440	    -12.62103923	     30.34533442	     50.28541372	     86.85272911
      2.25000000	    -10.06547803	     -6.11443677	      9.11291977	      2.03146774	      0.82064356	     -0.08980195	     34.58216734	     -2.69351218	    -10.81989607	     15.76697003	      0.22031372	    -10.97770584	      0.00000000	    -16.88247187	    -14.88218674	     -3.60326509	      8.92240634	     -2.27307337	      4.59435484	      0.00000000	     -6.02885688	      3.61192215	    -11.40547172	    -24.48019864	    -12.64410599	     -5.68206899	     60.59922763	     91.04255388	     -3.71764149	    -13.59255316	     28.82598337	     49.58371830	     86.35855417
      2.26666670	    -10.17965382	     -6.39508137	      8.82382437	      2.05462115	      0.82073286	     -0.08251713	     34.58909300	     -1.69293071	    -10.69104096	     18.29447402	     -0.90928542	    -12.37518539	      0.00000000	    -16.51900847	    -16.08216600	     -3.90369491	     11.14182114	     -4.98106678	      3.95444679	      0.00000000	     -5.71491678	      4.29587139	    -12.01334274	    -24.97671583	    -11.48647909	     -2.64488841	     53.85801753	     90.64198547	     -6.80120133	    -14.37941997	     26.42126920	     49.62456048	     85.70051425
      2.28333330	    -10.05775470	     -6.62401934	      8.32897223	      2.07833029	      0.82239253	     -0.07630675	     34.24784537	     -0.59540847	    -10.33456869	     20.72053081	     -1.03266165	    -13.14212502	      0.00000000	    -16.19197481	    -17.09844558	     -4.01338595	     13.77869997	     -7.96422504	      3.01679439	      0.00000000	     -5.69152515	      5.04125778	    -11.70230553	    -25.73897675	    -10.27352778	     -0.43948131	     47.58742044	     90.09739113	     -8.80367446	    -14.93339152	     24.90888154	     48.98226286	     85.25155419
      2.30000000	    -10.01383794	     -6.85883701	      7.89238316	      2.10272885	      0.82412396	     -0.07053115	     33.51781996	      0.41902218	    -10.42339332	     22.44797991	     -0.48845825	    -13.45243293	      0.00000000	    -15.25064054	    -18.01878965	     -3.77768856	     17.11999133	    -11.22704949	      1.51072121	      0.00000000	     -5.26080082	      5.62002579	    -11.95924096	    -25.80587352	    -10.20085210	      3.19228757	     42.15656491	     89.05272327	    -11.11159986	    -15.21059395	     22.96905121	     48.13680997	     84.43995911
      2.31666670	     -9.90045768	     -6.89828448	      7.24038467	      2.12641831	      0.82457999	     -0.06450242	     32.40902629	      1.34139918	    -10.29877304	     23.67138844	      0.72431548	    -13.23265372	      0.00000000	    -13.71753582	    -18.60745514	     -3.55730022	     21.48285820	    -14.70720537	     -0.56076751	      0.00000000	     -4.99795396	      5.97653766	    -11.64296635	    -25.90272436	    -10.98451711	      6.76468065	     39.18274138	     87.63400947	    -12.86199662	    -15.23821132	     20.98598293	     47.48570582	     83.38327465
      2.33333330	     -9.84022911	     -7.01299926	      6.53686268	      2.14931934	      0.82434507	     -0.05805588	     30.90509973	      2.46193707	     -9.99370555	     24.06261712	      2.26739051	    -12.89427662	      0.00000000	    -11.37094151	    -19.25825874	     -3.25305676	     26.81423567	    -17.63667293	     -2.34555322	      0.00000000	     -4.66408300	      6.26582572	    -11.97908392	    -24.96262463	    -12.79032620	     12.42266820	     37.23734530	     83.56660110	    -15.09530816	    -15.00888871	     17.99350278	     47.44833061	     80.85299752
      2.35000000	     -9.69584893	     -6.69479987	      5.67182768	      2.17061681	      0.82552786	     -0.05146906	     29.09410778	      3.26933990	     -9.23336866	     24.04661866	      4.08862082	    -13.02935375	      0.00000000	     -8.48142994	    -19.16986492	     -2.40913938	     32.79619210	    -20.69502715	     -5.09055580	      0.00000000	     -4.53435720	      6.04483839	    -10.44034400	    -25.39679752	    -13.42545677	     12.82882985	     37.22549350	     82.62118245	    -15.39554438	    -15.47306580	     17.32519702	     47.32487901	     80.33069552
